# xmcd
#
# Track frame offsets: 
#        150
#        19767
#        34253
#        55883
#        72859
#        92459
#        111193
#        137001
#        154720
#        175578
#        207991
#        225283
#        243866
#        261981
#
# Disc length: 3871 seconds
#
# Revision: 0
# Processed by: cddbd v1.5.1PL0 Copyright (c) Steve Scherf et al.
# Submitted via: ExactAudioCopy v0.95a5
#
DISCID=b00f1d0e
DTITLE=Robbie Williams - Escapology
DYEAR=2003
DGENRE=Acid Jazz
TTITLE0=Feel
TTITLE1=How Peculiar
TTITLE2=Something Beautiful
TTITLE3=Monsoon
TTITLE4=Sexed Up
TTITLE5=Love Somebody
TTITLE6=Revolution
TTITLE7=Handsome Man
TTITLE8=Come Undone
TTITLE9=Me And My Monkey
TTITLE10=Song 3
TTITLE11=Hot Fudge
TTITLE12=Cursed
TTITLE13=Nan´S Song
EXTD=
EXTT0=
EXTT1=
EXTT2=
EXTT3=
EXTT4=
EXTT5=
EXTT6=
EXTT7=
EXTT8=
EXTT9=
EXTT10=
EXTT11=
EXTT12=
EXTT13=
PLAYORDER=
